<svg width="42" height="42" viewBox="0 0 42 42" fill="none" xmlns="http://www.w3.org/2000/svg">
<path fill-rule="evenodd" clip-rule="evenodd" d="M16 41C24.2843 41 31 34.2843 31 26C31 17.7157 24.2843 11 16 11C7.71573 11 1 17.7157 1 26C1 34.2843 7.71573 41 16 41Z" stroke="#F3F3F3" stroke-width="2" stroke-linecap="round" stroke-linejoin="round"/>
<path fill-rule="evenodd" clip-rule="evenodd" d="M12.25 30.999C14.3211 30.999 16 29.3201 16 27.249C16 25.178 14.3211 23.499 12.25 23.499C10.1789 23.499 8.5 25.178 8.5 27.249C8.5 29.3201 10.1789 30.999 12.25 30.999Z" stroke="#F3F3F3" stroke-width="2" stroke-linecap="round" stroke-linejoin="round"/>
<rect x="21" y="1" width="20" height="20" stroke="#F3F3F3" stroke-width="2" stroke-linecap="round" stroke-linejoin="round"/>
<path fill-rule="evenodd" clip-rule="evenodd" d="M36 30.999L31 38.498H41L36 30.999Z" stroke="#F3F3F3" stroke-width="2" stroke-linecap="round" stroke-linejoin="round"/>
<path fill-rule="evenodd" clip-rule="evenodd" d="M1 1L16 16L1 1Z" stroke="#F3F3F3" stroke-width="2" stroke-linecap="round" stroke-linejoin="round"/>
<path fill-rule="evenodd" clip-rule="evenodd" d="M36 5.99902L31 10.9995L36 5.99902Z" stroke="#F3F3F3" stroke-width="2" stroke-linecap="round" stroke-linejoin="round"/>
</svg>
