<svg width="14" height="14" viewBox="0 0 14 14" fill="none" xmlns="http://www.w3.org/2000/svg">
<path d="M4.33333 2C4.88562 2 5.33333 1.55228 5.33333 1C5.33333 0.447715 4.88562 0 4.33333 0V2ZM0 4.33333C0 4.88562 0.447715 5.33333 1 5.33333C1.55228 5.33333 2 4.88562 2 4.33333H0ZM12 4.33333C12 4.88562 12.4477 5.33333 13 5.33333C13.5523 5.33333 14 4.88562 14 4.33333H12ZM9.66667 0C9.11438 0 8.66667 0.447715 8.66667 1C8.66667 1.55228 9.11438 2 9.66667 2V0ZM9.66667 12C9.11438 12 8.66667 12.4477 8.66667 13C8.66667 13.5523 9.11438 14 9.66667 14V12ZM14 9.66667C14 9.11438 13.5523 8.66667 13 8.66667C12.4477 8.66667 12 9.11438 12 9.66667H14ZM2 9.66667C2 9.11438 1.55228 8.66667 1 8.66667C0.447715 8.66667 0 9.11438 0 9.66667H2ZM4.33333 14C4.88562 14 5.33333 13.5523 5.33333 13C5.33333 12.4477 4.88562 12 4.33333 12V14ZM4.33333 0H2.33333V2H4.33333V0ZM2.33333 0C1.04467 0 0 1.04467 0 2.33333H2C2 2.14924 2.14924 2 2.33333 2V0ZM0 2.33333V4.33333H2V2.33333H0ZM14 4.33333V2.33333H12V4.33333H14ZM14 2.33333C14 1.04467 12.9553 0 11.6667 0V2C11.8508 2 12 2.14924 12 2.33333H14ZM11.6667 0H9.66667V2H11.6667V0ZM9.66667 14H11.6667V12H9.66667V14ZM11.6667 14C12.9553 14 14 12.9553 14 11.6667H12C12 11.8508 11.8508 12 11.6667 12V14ZM14 11.6667V9.66667H12V11.6667H14ZM0 9.66667V11.6667H2V9.66667H0ZM0 11.6667C0 12.9553 1.04467 14 2.33333 14V12C2.14924 12 2 11.8508 2 11.6667H0ZM2.33333 14H4.33333V12H2.33333V14Z" fill="#20CD84"/>
</svg>
